<?xml version="1.0" standalone="no"?><!DOCTYPE svg PUBLIC "-//W3C//DTD SVG 1.1//EN" "http://www.w3.org/Graphics/SVG/1.1/DTD/svg11.dtd"><svg class="icon" width="200px" height="200.00px" viewBox="0 0 1024 1024" version="1.1" xmlns="http://www.w3.org/2000/svg"><path fill="#ffffff" d="M896 96H128c-35.2 0-64 28.8-64 64v512c0 35.2 28.8 64 64 64h352v128h-160c-19.2 0-32 12.8-32 32s12.8 32 32 32h384c19.2 0 32-12.8 32-32s-12.8-32-32-32h-160v-128h352c35.2 0 64-28.8 64-64V160c0-35.2-28.8-64-64-64z m0 576H128V160h768v512z" /></svg>