<svg t="1717470578178" class="icon" viewBox="0 0 1537 1024" version="1.1" xmlns="http://www.w3.org/2000/svg" p-id="5655" width="200" height="200"><path d="M215.446788 664.922021h20.590485c5.524277 0 10.044139 4.519863 10.044139 10.044139s-4.519863 10.044139-10.044139 10.044139h-20.590485v20.590486c0 5.524277-4.519863 10.044139-10.04414 10.044139s-10.044139-4.519863-10.044139-10.044139v-20.590486h-20.590485c-5.524277 0-10.044139-4.519863-10.04414-10.044139s4.519863-10.044139 10.04414-10.044139h20.590485v-20.590486c0-5.524277 4.519863-10.044139 10.044139-10.044139s10.044139 4.519863 10.04414 10.044139v20.590486zM1465.439922 651.362433v-20.590486c0-5.524277-4.519863-10.044139-10.04414-10.044139s-10.044139 4.519863-10.044139 10.044139v20.590486h-20.590486c-5.524277 0-10.044139 4.519863-10.044139 10.044139s4.519863 10.044139 10.044139 10.044139h20.590486v20.590486c0 5.524277 4.519863 10.044139 10.044139 10.044139s10.044139-4.519863 10.04414-10.044139v-20.590486h20.590485c5.524277 0 10.044139-4.519863 10.044139-10.044139s-4.519863-10.044139-10.044139-10.044139h-20.590485zM364.602256 65.789112h30.634625c8.537518 0 15.568416 7.030897 15.568416 15.568416 0 8.537518-7.030897 15.568416-15.568416 15.568416h-30.634625v30.634625c0 8.537518-7.030897 15.568416-15.568416 15.568416-8.537518 0-15.568416-7.030897-15.568416-15.568416v-30.634625h-30.634625c-8.537518 0-15.568416-6.528691-15.568415-15.066209s7.030897-15.568416 15.568415-15.568416h30.634625V35.154487c0-8.537518 7.030897-15.568416 15.568416-15.568415 8.537518 0 15.568416 7.030897 15.568416 15.568415v30.634625zM62.273664 941.638058c0-11.55076 9.039725-20.590486 20.590485-20.590486h123.040706c11.048553 0 20.590486 9.039725 20.590486 20.590486s-9.039725 20.590486-20.590486 20.590485h-123.040706c-12.052967 0-20.590486-9.541932-20.590485-20.590485zM102.450221 285.755763c-34.150074 0-61.26925 27.621383-61.26925 61.269249s27.621383 61.26925 61.26925 61.26925c34.150074 0 61.26925-27.621383 61.269249-61.26925s-27.119176-61.26925-61.269249-61.269249z m0 92.406081c-17.075037 0-30.634625-13.559588-30.634625-30.634625s13.559588-30.634625 30.634625-30.634625 30.634625 13.559588 30.634625 30.634625-13.057381 30.634625-30.634625 30.634625zM1373.03384 162.715056c-34.150074 0-61.26925 27.621383-61.26925 61.26925 0 34.150074 27.621383 61.26925 61.26925 61.26925 34.150074 0 61.26925-27.621383 61.26925-61.26925s-27.119176-61.26925-61.26925-61.26925z m0 92.406082c-17.075037 0-30.634625-13.559588-30.634625-30.634625s13.559588-30.634625 30.634625-30.634625 30.634625 13.559588 30.634625 30.634625c0.502207 17.075037-13.559588 30.634625-30.634625 30.634625z" fill="#2681ff" p-id="5656"></path><path d="M1271.085826 818.597352H1157.084846c7.030897-12.052967 11.048553-26.114762 11.048553-40.678764V183.305542c0-45.198627-36.661108-81.859735-81.859735-81.859735h-491.660618c-45.198627 0-81.859735 36.661108-81.859736 81.859735v20.590485h-61.269249c-45.198627 0-81.859735 36.661108-81.859735 81.859736v594.613045c0 14.564002 3.515449 28.625797 11.048553 40.678764h-92.908289c-11.048553 0-20.590486 9.039725-20.590485 20.590486 0 11.048553 9.039725 20.590486 20.590485 20.590485H803.531143l49.718489 49.71849c16.070623 16.070623 41.683178 16.070623 57.753801 0 13.559588-13.559588 15.568416-34.150074 6.528691-49.71849h107.974497c11.048553 0 20.590486-9.039725 20.590485-20.590485s-9.039725-20.590486-20.590485-20.590486H1014.458068c7.030897-12.052967 11.048553-26.114762 11.048553-40.678764v-20.590485h246.081412c11.55076 0 20.590486-9.039725 20.590486-20.590486-0.502207-11.55076-10.044139-20.590486-21.092693-20.590485zM984.32565 879.866601c0 22.599313-18.079451 41.180971-40.678764 41.180971h-65.286906l-68.802354-68.300147c-10.546346-10.546346-25.612555-14.564002-39.67435-10.546346l-19.586071-19.586072c42.687592-57.251594 37.163315-137.102501-13.559589-187.825404-56.24718-55.744973-147.146641-55.744973-202.891613 0.502207-50.220696 50.220696-55.744973 130.071604-13.559588 186.82099 47.207455 63.780284 137.102501 76.837666 200.882786 29.630211l19.586071 19.586072c-4.017656 14.061795 0.502207 29.128004 10.546346 39.67435l10.546347 10.546346h-310.866111c-22.599313 0-40.678764-18.581658-40.678764-41.180971V284.751349c0-22.097106 17.577244-39.67435 39.67435-39.67435H944.149093c21.594899 0 39.67435 17.577244 39.67435 39.67435 0 0 0 595.115253 0.502207 595.115252z m-276.716037-70.811182c-40.176557 40.176557-104.961256 40.176557-145.137813 0s-40.176557-104.961256 0-145.137812 104.961256-40.176557 145.137813 0 40.176557 104.961256 0 145.137812z m419.342815-31.639038c0 22.599313-18.079451 40.678764-40.678764 41.180971H1024.502207V285.755763c0-45.198627-36.661108-81.859735-81.859735-81.859736h-389.210397v-20.590485c0-22.599313 18.079451-40.678764 40.678764-41.180971h492.162825c22.599313 0 40.678764 18.079451 40.678764 41.180971v594.110839z" fill="#2681ff" p-id="5657"></path><path d="M847.223149 306.346248h-338.989701c-8.537518 0-15.568416 9.039725-15.568416 20.590486 0 11.048553 7.030897 20.590486 15.568416 20.590485h338.989701c8.537518 0 15.568416-9.039725 15.568415-20.590485s-7.533104-20.590486-15.568415-20.590486zM762.852379 408.796469h-255.121138c-8.537518 0-16.070623 9.039725-16.070623 20.590485 0 11.048553 7.030897 20.590486 16.070623 20.590486h255.121138c8.537518 0 16.070623-9.039725 16.070622-20.590486 0.502207-11.55076-7.030897-20.590486-16.070622-20.590485zM665.926435 501.20255h-154.177538c-10.546346 0-19.083865 9.039725-19.083865 20.590486 0 11.048553 8.537518 20.590486 19.083865 20.590485h154.177538c10.546346 0 19.083865-9.039725 19.083864-20.590485-0.502207-11.55076-8.537518-20.590486-19.083864-20.590486z" fill="#2681ff" p-id="5658"></path></svg>