<?xml version="1.0" standalone="no"?><!DOCTYPE svg PUBLIC "-//W3C//DTD SVG 1.1//EN" "http://www.w3.org/Graphics/SVG/1.1/DTD/svg11.dtd"><svg class="icon" width="200px" height="200.00px" viewBox="0 0 1024 1024" version="1.1" xmlns="http://www.w3.org/2000/svg"><path fill="#ffffff" d="M946.244267 785.066667c5.870933-10.069333 9.489067-21.640533 9.489066-34.133334V238.933333c0-37.649067-30.6176-68.266667-68.266666-68.266666H136.533333c-37.649067 0-68.266667 30.6176-68.266666 68.266666v512c0 12.4928 3.618133 24.064 9.489066 34.133334H0v34.133333a68.266667 68.266667 0 0 0 68.266667 68.266667h887.466666a68.266667 68.266667 0 0 0 68.266667-68.266667v-34.133333h-77.755733zM614.4 750.933333a34.133333 34.133333 0 0 1-34.133333 34.133334h-102.4a34.133333 34.133333 0 0 1-34.133334-34.133334H136.533333V238.933333h750.933334l0.034133 512H614.4z" /></svg>