<svg t="1716970240185" class="icon" viewBox="0 0 1024 1024" version="1.1" xmlns="http://www.w3.org/2000/svg" p-id="1467" width="200" height="200"><path d="M870.4 12.8H153.6A140.9024 140.9024 0 0 0 12.8 153.6v716.8A140.9024 140.9024 0 0 0 153.6 1011.2h504.2688a38.4 38.4 0 0 0 0-76.8H153.6c-35.2768 0-64-28.7232-64-64v-166.3488h844.8V870.4c0 35.2768-28.7232 64-64 64h-11.4688a38.4 38.4 0 0 0 0 76.8H870.4A140.9024 140.9024 0 0 0 1011.2 870.4V153.6A140.9024 140.9024 0 0 0 870.4 12.8zM89.6 627.2512V153.6c0-35.2768 28.7232-64 64-64h716.8c35.2768 0 64 28.7232 64 64v473.6512H89.6z" fill="#2681ff" p-id="1468"></path><path d="M255.0272 821.1456m-49.664 0a49.664 49.664 0 1 0 99.328 0 49.664 49.664 0 1 0-99.328 0Z" fill="#2681ff" p-id="1469"></path><path d="M741.2736 193.4848L460.4416 474.368 305.2032 319.0272A38.4 38.4 0 1 0 250.88 373.3504l209.5616 209.6128 335.104-335.1552a38.4 38.4 0 0 0-54.272-54.3232z" fill="#2681ff" p-id="1470"></path></svg>