<svg t="1717144229799" class="icon" viewBox="0 0 1070 1024" version="1.1" xmlns="http://www.w3.org/2000/svg" p-id="2472" width="200" height="200"><path d="M535.011116 977.977308H115.056154A115.056154 115.056154 0 0 1 0 862.921154V115.056154A115.056154 115.056154 0 0 1 115.056154 0h839.909924a115.056154 115.056154 0 0 1 115.056153 115.056154v327.910039a28.764038 28.764038 0 0 1-57.528077 0V115.056154a57.528077 57.528077 0 0 0-57.528076-57.528077H115.056154a57.528077 57.528077 0 0 0-57.528077 57.528077v747.865a57.528077 57.528077 0 0 0 57.528077 57.528077h419.954962a28.764038 28.764038 0 0 1 0 57.528077z" p-id="2473" fill="#2681ff"></path><path d="M1041.258193 287.640385h-1012.494155a28.764038 28.764038 0 0 1 0-57.528077h1012.494155a28.764038 28.764038 0 0 1 0 57.528077zM765.123424 655.820077h-276.13477a28.764038 28.764038 0 0 1 0-57.528077h276.13477a28.764038 28.764038 0 0 1 0 57.528077z" p-id="2474" fill="#2681ff"></path><path d="M627.056039 1023.99977a28.764038 28.764038 0 0 1-28.764039-28.764039v-414.202154a28.764038 28.764038 0 0 1 57.528077 0v414.202154a28.764038 28.764038 0 0 1-28.764038 28.764039z" p-id="2475" fill="#2681ff"></path><path d="M627.056039 609.797616a28.764038 28.764038 0 0 1-28.764039-28.764039C598.292 539.728418 598.292 414.202154 719.100962 414.202154a28.764038 28.764038 0 0 1 0 57.528077c-31.985611 0-63.280885 8.399099-63.280885 109.303346a28.764038 28.764038 0 0 1-28.764038 28.764039z" p-id="2476" fill="#2681ff"></path><path d="M765.123424 471.730231h-46.022462a28.764038 28.764038 0 0 1 0-57.528077h46.022462a28.764038 28.764038 0 0 1 0 57.528077zM1041.258193 1023.99977a28.533926 28.533926 0 0 1-23.011231-11.505616l-276.134769-368.179692a28.764038 28.764038 0 0 1 46.022461-34.516846l276.13477 368.179692a28.764038 28.764038 0 0 1-23.011231 46.022462z" p-id="2477" fill="#2681ff"></path><path d="M765.123424 1023.99977a28.764038 28.764038 0 0 1-23.011231-46.022462l276.134769-368.179692a28.764038 28.764038 0 0 1 46.022462 34.516846l-276.13477 368.179692a28.533926 28.533926 0 0 1-23.01123 11.505616z" p-id="2478" fill="#2681ff"></path></svg>